<?xml version="1.0" encoding="UTF-8" standalone="no"?>
<svg
   xmlns:dc="http://purl.org/dc/elements/1.1/"
   xmlns:cc="http://creativecommons.org/ns#"
   xmlns:rdf="http://www.w3.org/1999/02/22-rdf-syntax-ns#"
   xmlns:svg="http://www.w3.org/2000/svg"
   xmlns="http://www.w3.org/2000/svg"
   viewBox="0 0 2000 2000"
   height="2000"
   width="2000"
   xml:space="preserve"
   id="svg2"
   version="1.1"><metadata
     id="metadata8"><rdf:RDF><cc:Work
         rdf:about=""><dc:format>image/svg+xml</dc:format><dc:type
           rdf:resource="http://purl.org/dc/dcmitype/StillImage" /></cc:Work></rdf:RDF></metadata><defs
     id="defs6"><clipPath
       id="clipPath20"
       clipPathUnits="userSpaceOnUse"><path
         id="path18"
         d="m 373.623,801.273 c 0.247,-7.447 7.669,-7.105 14.105,-6.763 v 0 c 1.413,0.075 2.777,0.15 4.01,0.143 v 0 c 33.867,-0.167 67.735,-0.113 101.611,-0.134 v 0 l 4.962,14.499 c -35.472,0.014 -70.935,0.048 -106.406,-0.181 v 0 c -1.301,-0.009 -2.759,0.088 -4.268,0.186 v 0 c -1.446,0.093 -2.941,0.186 -4.39,0.186 v 0 c -5.207,0 -9.838,-1.203 -9.624,-7.936" /></clipPath><radialGradient
       id="radialGradient28"
       spreadMethod="pad"
       gradientTransform="matrix(922.4541,-535.47363,-535.47363,-922.4541,949.58008,506.92187)"
       gradientUnits="userSpaceOnUse"
       r="1"
       cy="0"
       cx="0"
       fy="0"
       fx="0"><stop
         id="stop24"
         offset="0"
         style="stop-opacity:1;stop-color:#ffffff" /><stop
         id="stop26"
         offset="1"
         style="stop-opacity:1;stop-color:#000000" /></radialGradient><clipPath
       id="clipPath38"
       clipPathUnits="userSpaceOnUse"><path
         id="path36"
         d="m 535.136,784.647 c -1.803,-0.563 -4.16,-0.421 -6.399,-0.281 v 0 c -1.018,0.065 -2.01,0.129 -2.916,0.127 v 0 c -6.781,-0.022 -13.562,-0.003 -20.342,0.017 v 0 c -12.292,0.034 -24.582,0.069 -36.865,-0.138 v 0 c -5.995,-0.1 -13.507,-0.945 -13.312,-8.416 v 0 c 0.194,-7.632 7.833,-7.418 13.802,-7.599 v 0 c 11.26,-0.328 22.541,-0.148 33.801,-0.362 v 0 c 3.011,-0.054 6.552,-0.436 6.733,-4.145 v 0 c 0.181,-3.595 -3.085,-4.594 -6.17,-4.915 v 0 c -3.856,-0.402 -7.779,-0.443 -11.669,-0.443 v 0 c -27.315,-0.04 -54.631,0 -81.934,-0.054 v 0 c -3.897,-0.006 -7.826,-0.087 -11.663,-0.616 v 0 c -5.217,-0.719 -9.047,-3.2 -8.705,-8.639 v 0 c 0.302,-4.775 3.911,-6.914 8.658,-7.397 v 0 c 3.434,-0.349 6.915,-0.335 10.383,-0.335 v 0 c 28.181,-0.046 56.354,0.034 84.535,-0.175 v 0 c 0.692,-0.005 1.471,0.04 2.282,0.086 v 0 c 3.709,0.209 8.093,0.419 8.006,-4.203 v 0 c -0.087,-4.455 -4.86,-4.382 -8.765,-4.31 v 0 c -0.617,0.012 -1.212,0.024 -1.764,0.017 v 0 c -19.074,-0.22 -38.147,-0.093 -57.22,-0.207 v 0 c -6.157,-0.047 -13.279,0.04 -13.4,-7.827 v 0 c -0.107,-8.182 6.981,-9.101 13.829,-9.141 v 0 c 12.259,-0.075 24.518,-0.069 36.777,-0.062 v 0 c 5.513,0.002 11.026,0.005 16.54,10e-4 v 0 c 2.641,-0.004 5.282,0.006 7.923,0.016 v 0 c 6.9,0.024 13.8,0.049 20.687,-0.162 v 0 c 0.786,-0.026 1.651,-0.005 2.542,0.018 v 0 c 4.145,0.102 8.886,0.206 9.14,-4.539 v 0 c 0.26,-4.898 -3.952,-4.866 -7.881,-4.834 v 0 c -1.13,0.009 -2.235,0.018 -3.204,-0.089 v 0 c -2.998,-0.329 -6.063,-0.094 -9.094,-0.094 v 0 c -8.387,-0.004 -16.774,-10e-4 -25.16,0 v 0 c -20.659,0.006 -41.318,0.012 -61.972,-0.074 v 0 c -6.478,-0.033 -14.573,0.308 -14.438,-8.161 v 0 c 0.128,-7.088 6.283,-6.978 11.706,-6.868 v 0 c 0.77,0.016 1.526,0.031 2.249,0.027 v 0 c 14.081,-0.086 28.162,-0.083 42.243,-0.08 v 0 c 10.197,0.001 20.393,0.003 30.59,-0.027 v 0 c 3.871,-0.014 7.901,0.02 11.583,-0.878 v 0 c 3.936,-0.967 7.276,-3.904 6.552,-7.794 v 0 c -0.513,-2.754 -3.2,-2.587 -5.682,-2.419 v 0 c -0.741,0.049 -1.464,0.099 -2.104,0.072 v 0 c -7.351,-0.309 -14.748,-0.027 -22.085,-0.523 v 0 c -4.52,-0.302 -8.726,-2.093 -8.491,-7.25 v 0 c 0.202,-4.407 3.938,-5.99 8.008,-6.479 v 0 c 3.849,-0.463 7.773,-0.489 11.662,-0.489 v 0 c 5.695,-0.007 11.382,-0.007 17.075,-0.007 v 0 c -0.228,2.743 1.175,5.412 3.655,6.767 v 0 c 6.546,3.561 11.763,10.046 15.52,19.274 v 0 l 31.915,93.61 z" /></clipPath><radialGradient
       id="radialGradient46"
       spreadMethod="pad"
       gradientTransform="matrix(922.4541,-535.47363,-535.47363,-922.4541,949.58008,506.92187)"
       gradientUnits="userSpaceOnUse"
       r="1"
       cy="0"
       cx="0"
       fy="0"
       fx="0"><stop
         id="stop42"
         offset="0"
         style="stop-opacity:1;stop-color:#ffffff" /><stop
         id="stop44"
         offset="1"
         style="stop-opacity:1;stop-color:#000000" /></radialGradient><clipPath
       id="clipPath56"
       clipPathUnits="userSpaceOnUse"><path
         id="path54"
         d="m 488.895,827.495 c 0.322,-5.653 5.252,-6.841 10.314,-6.907 v 0 c 1.02,-0.014 2.04,-0.027 3.058,-0.035 v 0 l 4.91,14.333 c -2.904,0.02 -5.808,0.053 -8.712,0.114 v 0 c -0.128,0.003 -0.257,0.004 -0.385,0.004 v 0 c -4.926,0 -9.499,-1.913 -9.185,-7.509" /></clipPath><radialGradient
       id="radialGradient64"
       spreadMethod="pad"
       gradientTransform="matrix(922.4541,-535.47363,-535.47363,-922.4541,949.58008,506.92187)"
       gradientUnits="userSpaceOnUse"
       r="1"
       cy="0"
       cx="0"
       fy="0"
       fx="0"><stop
         id="stop60"
         offset="0"
         style="stop-opacity:1;stop-color:#ffffff" /><stop
         id="stop62"
         offset="1"
         style="stop-opacity:1;stop-color:#000000" /></radialGradient><clipPath
       id="clipPath74"
       clipPathUnits="userSpaceOnUse"><path
         id="path72"
         d="m 399.939,783.73 c -4.148,-0.589 -6.846,-3.449 -6.615,-7.624 v 0 c 0.232,-4.168 3.301,-6.538 7.399,-7.114 v 0 c 5.074,-0.711 10.268,-0.703 15.968,-1.039 v 0 c 5.905,0.308 12.375,0.34 18.749,1.087 v 0 c 4.082,0.479 7.245,2.887 7.413,7.074 v 0 c 0.172,4.269 -2.97,6.594 -7.023,7.337 v 0 c -6.008,1.1 -12.049,1.592 -18.092,1.592 v 0 c -5.939,0 -11.88,-0.475 -17.799,-1.313" /></clipPath><radialGradient
       id="radialGradient82"
       spreadMethod="pad"
       gradientTransform="matrix(922.4541,-535.47363,-535.47363,-922.4541,949.58008,506.92187)"
       gradientUnits="userSpaceOnUse"
       r="1"
       cy="0"
       cx="0"
       fy="0"
       fx="0"><stop
         id="stop78"
         offset="0"
         style="stop-opacity:1;stop-color:#ffffff" /><stop
         id="stop80"
         offset="1"
         style="stop-opacity:1;stop-color:#000000" /></radialGradient><clipPath
       id="clipPath92"
       clipPathUnits="userSpaceOnUse"><path
         id="path90"
         d="m 362.157,705.21 c -4.169,-0.422 -7.211,-3.006 -7.2,-7.254 v 0 c 0.016,-5.144 3.969,-6.745 8.678,-6.95 v 0 c 5.182,-0.225 10.386,-0.05 15.58,-0.05 v 0 c 0,0.036 0.001,0.071 0.001,0.107 v 0 c 5.624,0 11.258,-0.183 16.869,0.06 v 0 c 4.287,0.186 7.711,2.18 7.963,6.419 v 0 c 0.247,4.164 -2.827,6.867 -6.972,7.468 v 0 c -5.683,0.827 -11.394,1.173 -17.107,1.173 v 0 c -5.942,0 -11.887,-0.374 -17.812,-0.973" /></clipPath><radialGradient
       id="radialGradient100"
       spreadMethod="pad"
       gradientTransform="matrix(922.4541,-535.47363,-535.47363,-922.4541,949.58008,506.92187)"
       gradientUnits="userSpaceOnUse"
       r="1"
       cy="0"
       cx="0"
       fy="0"
       fx="0"><stop
         id="stop96"
         offset="0"
         style="stop-opacity:1;stop-color:#ffffff" /><stop
         id="stop98"
         offset="1"
         style="stop-opacity:1;stop-color:#000000" /></radialGradient><clipPath
       id="clipPath110"
       clipPathUnits="userSpaceOnUse"><path
         id="path108"
         d="m 609.659,833.337 h -95.561 l -4.399,-12.837 -3.938,-11.488 -4.976,-14.506 -0.966,-2.817 h 37.872 34.452 L 536.98,688.583 c -4.406,-10.932 -10.656,-18.604 -18.757,-23.01 v 0 h 10.857 v -0.114 h 4.769 46.664 l 43.183,126.23 h 72.316 l 14.279,41.648 z" /></clipPath><radialGradient
       id="radialGradient118"
       spreadMethod="pad"
       gradientTransform="matrix(922.4541,-535.47363,-535.47363,-922.4541,949.58008,506.92187)"
       gradientUnits="userSpaceOnUse"
       r="1"
       cy="0"
       cx="0"
       fy="0"
       fx="0"><stop
         id="stop114"
         offset="0"
         style="stop-opacity:1;stop-color:#ffffff" /><stop
         id="stop116"
         offset="1"
         style="stop-opacity:1;stop-color:#000000" /></radialGradient><clipPath
       id="clipPath128"
       clipPathUnits="userSpaceOnUse"><path
         id="path126"
         d="m 724.562,833.337 -14.271,-41.648 h 72.317 L 747.451,688.583 c -4.407,-10.932 -10.656,-18.604 -18.758,-23.01 v 0 h 10.85 v -0.114 h 51.44 l 43.177,126.23 h 72.324 l 14.271,41.648 z" /></clipPath><radialGradient
       id="radialGradient136"
       spreadMethod="pad"
       gradientTransform="matrix(922.4541,-535.47363,-535.47363,-922.4541,949.58008,506.92187)"
       gradientUnits="userSpaceOnUse"
       r="1"
       cy="0"
       cx="0"
       fy="0"
       fx="0"><stop
         id="stop132"
         offset="0"
         style="stop-opacity:1;stop-color:#ffffff" /><stop
         id="stop134"
         offset="1"
         style="stop-opacity:1;stop-color:#000000" /></radialGradient><clipPath
       id="clipPath146"
       clipPathUnits="userSpaceOnUse"><path
         id="path144"
         d="m 924.664,833.457 c 4.796,-1.656 9.121,-4.641 12.978,-8.966 v 0 c 7.705,-8.813 9.242,-20.14 4.6,-33.982 v 0 c -0.234,-0.47 -1.495,-3.696 -3.776,-9.671 v 0 c -12.111,-32.641 -0.396,-48.957 35.156,-48.957 v 0 h 77.279 c 7.471,0 13.171,-1.382 17.102,-4.132 v 0 c 4.091,-2.911 5.312,-6.808 3.662,-11.676 v 0 c -1.973,-5.667 -5.547,-9.557 -10.737,-11.683 v 0 c -3.622,-1.415 -8.813,-2.125 -15.574,-2.125 v 0 H 911.808 c -3.702,-12.194 -2.401,-21.159 3.89,-26.9 v 0 c 7.237,-6.607 21.749,-9.906 43.532,-9.906 v 0 h 64.885 c 33.902,0 56.945,3.065 69.137,9.201 v 0 c 12.663,6.446 22.809,20.569 30.436,42.353 v 0 c 7.155,20.528 6.766,34.725 -1.181,42.592 v 0 c -6.526,6.444 -19.899,9.671 -40.112,9.671 v 0 h -42.586 c -22.97,-0.161 -37.202,0.429 -42.707,1.77 v 0 c -3.857,0.946 -6.332,2.435 -7.431,4.48 v 0 c -1.026,1.965 -0.945,4.762 0.235,8.377 v 0 c 2.984,8.497 10.809,12.743 23.472,12.743 v 0 h 130.247 c 2.361,10.93 1.772,18.838 -1.77,23.713 v 0 c -6.21,8.733 -21.468,13.098 -45.772,13.098 v 0 z" /></clipPath><radialGradient
       id="radialGradient154"
       spreadMethod="pad"
       gradientTransform="matrix(922.4541,-535.47363,-535.47363,-922.4541,949.58008,506.92187)"
       gradientUnits="userSpaceOnUse"
       r="1"
       cy="0"
       cx="0"
       fy="0"
       fx="0"><stop
         id="stop150"
         offset="0"
         style="stop-opacity:1;stop-color:#ffffff" /><stop
         id="stop152"
         offset="1"
         style="stop-opacity:1;stop-color:#000000" /></radialGradient></defs><g
     transform="matrix(1.3333333,0,0,-1.3333333,0,2000)"
     id="g10"><path
       id="path12"
       style="fill:#000000;fill-opacity:1;fill-rule:nonzero;stroke:none"
       d="M 0,0 H 1500 V 1500 H 0 Z" /><g
       id="g14"><g
         clip-path="url(#clipPath20)"
         id="g16"><g
           id="g22"><path
             id="path30"
             style="fill:url(#radialGradient28);stroke:none"
             d="m 373.623,801.273 c 0.247,-7.447 7.669,-7.105 14.105,-6.763 v 0 c 1.413,0.075 2.777,0.15 4.01,0.143 v 0 c 33.867,-0.167 67.735,-0.113 101.611,-0.134 v 0 l 4.962,14.499 c -35.472,0.014 -70.935,0.048 -106.406,-0.181 v 0 c -1.301,-0.009 -2.759,0.088 -4.268,0.186 v 0 c -1.446,0.093 -2.941,0.186 -4.39,0.186 v 0 c -5.207,0 -9.838,-1.203 -9.624,-7.936" /></g></g></g><g
       id="g32"><g
         clip-path="url(#clipPath38)"
         id="g34"><g
           id="g40"><path
             id="path48"
             style="fill:url(#radialGradient46);stroke:none"
             d="m 535.136,784.647 c -1.803,-0.563 -4.16,-0.421 -6.399,-0.281 v 0 c -1.018,0.065 -2.01,0.129 -2.916,0.127 v 0 c -6.781,-0.022 -13.562,-0.003 -20.342,0.017 v 0 c -12.292,0.034 -24.582,0.069 -36.865,-0.138 v 0 c -5.995,-0.1 -13.507,-0.945 -13.312,-8.416 v 0 c 0.194,-7.632 7.833,-7.418 13.802,-7.599 v 0 c 11.26,-0.328 22.541,-0.148 33.801,-0.362 v 0 c 3.011,-0.054 6.552,-0.436 6.733,-4.145 v 0 c 0.181,-3.595 -3.085,-4.594 -6.17,-4.915 v 0 c -3.856,-0.402 -7.779,-0.443 -11.669,-0.443 v 0 c -27.315,-0.04 -54.631,0 -81.934,-0.054 v 0 c -3.897,-0.006 -7.826,-0.087 -11.663,-0.616 v 0 c -5.217,-0.719 -9.047,-3.2 -8.705,-8.639 v 0 c 0.302,-4.775 3.911,-6.914 8.658,-7.397 v 0 c 3.434,-0.349 6.915,-0.335 10.383,-0.335 v 0 c 28.181,-0.046 56.354,0.034 84.535,-0.175 v 0 c 0.692,-0.005 1.471,0.04 2.282,0.086 v 0 c 3.709,0.209 8.093,0.419 8.006,-4.203 v 0 c -0.087,-4.455 -4.86,-4.382 -8.765,-4.31 v 0 c -0.617,0.012 -1.212,0.024 -1.764,0.017 v 0 c -19.074,-0.22 -38.147,-0.093 -57.22,-0.207 v 0 c -6.157,-0.047 -13.279,0.04 -13.4,-7.827 v 0 c -0.107,-8.182 6.981,-9.101 13.829,-9.141 v 0 c 12.259,-0.075 24.518,-0.069 36.777,-0.062 v 0 c 5.513,0.002 11.026,0.005 16.54,10e-4 v 0 c 2.641,-0.004 5.282,0.006 7.923,0.016 v 0 c 6.9,0.024 13.8,0.049 20.687,-0.162 v 0 c 0.786,-0.026 1.651,-0.005 2.542,0.018 v 0 c 4.145,0.102 8.886,0.206 9.14,-4.539 v 0 c 0.26,-4.898 -3.952,-4.866 -7.881,-4.834 v 0 c -1.13,0.009 -2.235,0.018 -3.204,-0.089 v 0 c -2.998,-0.329 -6.063,-0.094 -9.094,-0.094 v 0 c -8.387,-0.004 -16.774,-10e-4 -25.16,0 v 0 c -20.659,0.006 -41.318,0.012 -61.972,-0.074 v 0 c -6.478,-0.033 -14.573,0.308 -14.438,-8.161 v 0 c 0.128,-7.088 6.283,-6.978 11.706,-6.868 v 0 c 0.77,0.016 1.526,0.031 2.249,0.027 v 0 c 14.081,-0.086 28.162,-0.083 42.243,-0.08 v 0 c 10.197,0.001 20.393,0.003 30.59,-0.027 v 0 c 3.871,-0.014 7.901,0.02 11.583,-0.878 v 0 c 3.936,-0.967 7.276,-3.904 6.552,-7.794 v 0 c -0.513,-2.754 -3.2,-2.587 -5.682,-2.419 v 0 c -0.741,0.049 -1.464,0.099 -2.104,0.072 v 0 c -7.351,-0.309 -14.748,-0.027 -22.085,-0.523 v 0 c -4.52,-0.302 -8.726,-2.093 -8.491,-7.25 v 0 c 0.202,-4.407 3.938,-5.99 8.008,-6.479 v 0 c 3.849,-0.463 7.773,-0.489 11.662,-0.489 v 0 c 5.695,-0.007 11.382,-0.007 17.075,-0.007 v 0 c -0.228,2.743 1.175,5.412 3.655,6.767 v 0 c 6.546,3.561 11.763,10.046 15.52,19.274 v 0 l 31.915,93.61 z" /></g></g></g><g
       id="g50"><g
         clip-path="url(#clipPath56)"
         id="g52"><g
           id="g58"><path
             id="path66"
             style="fill:url(#radialGradient64);stroke:none"
             d="m 488.895,827.495 c 0.322,-5.653 5.252,-6.841 10.314,-6.907 v 0 c 1.02,-0.014 2.04,-0.027 3.058,-0.035 v 0 l 4.91,14.333 c -2.904,0.02 -5.808,0.053 -8.712,0.114 v 0 c -0.128,0.003 -0.257,0.004 -0.385,0.004 v 0 c -4.926,0 -9.499,-1.913 -9.185,-7.509" /></g></g></g><g
       id="g68"><g
         clip-path="url(#clipPath74)"
         id="g70"><g
           id="g76"><path
             id="path84"
             style="fill:url(#radialGradient82);stroke:none"
             d="m 399.939,783.73 c -4.148,-0.589 -6.846,-3.449 -6.615,-7.624 v 0 c 0.232,-4.168 3.301,-6.538 7.399,-7.114 v 0 c 5.074,-0.711 10.268,-0.703 15.968,-1.039 v 0 c 5.905,0.308 12.375,0.34 18.749,1.087 v 0 c 4.082,0.479 7.245,2.887 7.413,7.074 v 0 c 0.172,4.269 -2.97,6.594 -7.023,7.337 v 0 c -6.008,1.1 -12.049,1.592 -18.092,1.592 v 0 c -5.939,0 -11.88,-0.475 -17.799,-1.313" /></g></g></g><g
       id="g86"><g
         clip-path="url(#clipPath92)"
         id="g88"><g
           id="g94"><path
             id="path102"
             style="fill:url(#radialGradient100);stroke:none"
             d="m 362.157,705.21 c -4.169,-0.422 -7.211,-3.006 -7.2,-7.254 v 0 c 0.016,-5.144 3.969,-6.745 8.678,-6.95 v 0 c 5.182,-0.225 10.386,-0.05 15.58,-0.05 v 0 c 0,0.036 0.001,0.071 0.001,0.107 v 0 c 5.624,0 11.258,-0.183 16.869,0.06 v 0 c 4.287,0.186 7.711,2.18 7.963,6.419 v 0 c 0.247,4.164 -2.827,6.867 -6.972,7.468 v 0 c -5.683,0.827 -11.394,1.173 -17.107,1.173 v 0 c -5.942,0 -11.887,-0.374 -17.812,-0.973" /></g></g></g><g
       id="g104"><g
         clip-path="url(#clipPath110)"
         id="g106"><g
           id="g112"><path
             id="path120"
             style="fill:url(#radialGradient118);stroke:none"
             d="m 609.659,833.337 h -95.561 l -4.399,-12.837 -3.938,-11.488 -4.976,-14.506 -0.966,-2.817 h 37.872 34.452 L 536.98,688.583 c -4.406,-10.932 -10.656,-18.604 -18.757,-23.01 v 0 h 10.857 v -0.114 h 4.769 46.664 l 43.183,126.23 h 72.316 l 14.279,41.648 z" /></g></g></g><g
       id="g122"><g
         clip-path="url(#clipPath128)"
         id="g124"><g
           id="g130"><path
             id="path138"
             style="fill:url(#radialGradient136);stroke:none"
             d="m 724.562,833.337 -14.271,-41.648 h 72.317 L 747.451,688.583 c -4.407,-10.932 -10.656,-18.604 -18.758,-23.01 v 0 h 10.85 v -0.114 h 51.44 l 43.177,126.23 h 72.324 l 14.271,41.648 z" /></g></g></g><g
       id="g140"><g
         clip-path="url(#clipPath146)"
         id="g142"><g
           id="g148"><path
             id="path156"
             style="fill:url(#radialGradient154);stroke:none"
             d="m 924.664,833.457 c 4.796,-1.656 9.121,-4.641 12.978,-8.966 v 0 c 7.705,-8.813 9.242,-20.14 4.6,-33.982 v 0 c -0.234,-0.47 -1.495,-3.696 -3.776,-9.671 v 0 c -12.111,-32.641 -0.396,-48.957 35.156,-48.957 v 0 h 77.279 c 7.471,0 13.171,-1.382 17.102,-4.132 v 0 c 4.091,-2.911 5.312,-6.808 3.662,-11.676 v 0 c -1.973,-5.667 -5.547,-9.557 -10.737,-11.683 v 0 c -3.622,-1.415 -8.813,-2.125 -15.574,-2.125 v 0 H 911.808 c -3.702,-12.194 -2.401,-21.159 3.89,-26.9 v 0 c 7.237,-6.607 21.749,-9.906 43.532,-9.906 v 0 h 64.885 c 33.902,0 56.945,3.065 69.137,9.201 v 0 c 12.663,6.446 22.809,20.569 30.436,42.353 v 0 c 7.155,20.528 6.766,34.725 -1.181,42.592 v 0 c -6.526,6.444 -19.899,9.671 -40.112,9.671 v 0 h -42.586 c -22.97,-0.161 -37.202,0.429 -42.707,1.77 v 0 c -3.857,0.946 -6.332,2.435 -7.431,4.48 v 0 c -1.026,1.965 -0.945,4.762 0.235,8.377 v 0 c 2.984,8.497 10.809,12.743 23.472,12.743 v 0 h 130.247 c 2.361,10.93 1.772,18.838 -1.77,23.713 v 0 c -6.21,8.733 -21.468,13.098 -45.772,13.098 v 0 z" /></g></g></g></g></svg>