<?xml version="1.0" encoding="UTF-8" standalone="no"?>
<!DOCTYPE svg PUBLIC "-//W3C//DTD SVG 1.1//EN" "http://www.w3.org/Graphics/SVG/1.1/DTD/svg11.dtd">
<svg version="1.1" xmlns="http://www.w3.org/2000/svg" xmlns:xlink="http://www.w3.org/1999/xlink" preserveAspectRatio="xMidYMid meet" viewBox="0 0 2000 2000" width="2000" height="2000">
    <g>
        <path d="M498.16 931.64C498.49 941.57 508.39 941.11 516.97 940.65C516.97 940.65 516.97 940.65 516.97 940.65C518.85 940.55 520.67 940.45 522.32 940.46C522.32 940.46 522.32 940.46 522.32 940.46C567.47 940.69 612.63 940.61 657.8 940.64C657.8 940.64 657.8 940.64 657.8 940.64C661.77 929.04 663.97 922.6 664.41 921.31C617.12 921.29 569.83 921.25 522.54 921.55C522.54 921.55 522.54 921.55 522.54 921.55C520.81 921.56 518.86 921.43 516.85 921.3C516.85 921.3 516.85 921.3 516.85 921.3C514.92 921.18 512.93 921.05 511 921.05C511 921.05 511 921.05 511 921.05C504.05 921.05 497.88 922.66 498.16 931.64" id="ak98D4LrA"></path>
        <path d="M713.51 953.8C711.11 954.55 707.97 954.37 704.98 954.18C704.98 954.18 704.98 954.18 704.98 954.18C703.63 954.09 702.3 954.01 701.09 954.01C701.09 954.01 701.09 954.01 701.09 954.01C692.05 954.04 683.01 954.01 673.97 953.99C673.97 953.99 673.97 953.99 673.97 953.99C657.58 953.94 641.2 953.89 624.82 954.17C624.82 954.17 624.82 954.17 624.82 954.17C616.83 954.3 606.81 955.43 607.07 965.39C607.07 965.39 607.07 965.39 607.07 965.39C607.33 975.57 617.51 975.28 625.47 975.52C625.47 975.52 625.47 975.52 625.47 975.52C640.49 975.96 655.53 975.72 670.54 976.01C670.54 976.01 670.54 976.01 670.54 976.01C674.55 976.08 679.28 976.59 679.52 981.53C679.52 981.53 679.52 981.53 679.52 981.53C679.76 986.33 675.4 987.66 671.29 988.09C671.29 988.09 671.29 988.09 671.29 988.09C666.15 988.62 660.92 988.68 655.73 988.68C655.73 988.68 655.73 988.68 655.73 988.68C619.31 988.73 582.89 988.68 546.49 988.75C546.49 988.75 546.49 988.75 546.49 988.75C541.29 988.76 536.05 988.87 530.94 989.57C530.94 989.57 530.94 989.57 530.94 989.57C523.98 990.53 518.87 993.84 519.33 1001.09C519.33 1001.09 519.33 1001.09 519.33 1001.09C519.73 1007.46 524.54 1010.31 530.87 1010.95C530.87 1010.95 530.87 1010.95 530.87 1010.95C535.45 1011.42 540.09 1011.4 544.72 1011.4C544.72 1011.4 544.72 1011.4 544.72 1011.4C582.29 1011.46 619.86 1011.35 657.43 1011.63C657.43 1011.63 657.43 1011.63 657.43 1011.63C658.35 1011.64 659.39 1011.58 660.47 1011.52C660.47 1011.52 660.47 1011.52 660.47 1011.52C665.42 1011.24 671.26 1010.96 671.15 1017.12C671.15 1017.12 671.15 1017.12 671.15 1017.12C671.03 1023.06 664.67 1022.96 659.46 1022.87C659.46 1022.87 659.46 1022.87 659.46 1022.87C658.64 1022.85 657.85 1022.84 657.11 1022.85C657.11 1022.85 657.11 1022.85 657.11 1022.85C631.68 1023.14 606.25 1022.97 580.82 1023.12C580.82 1023.12 580.82 1023.12 580.82 1023.12C572.61 1023.18 563.11 1023.07 562.95 1033.56C562.95 1033.56 562.95 1033.56 562.95 1033.56C562.81 1044.47 572.26 1045.69 581.39 1045.75C581.39 1045.75 581.39 1045.75 581.39 1045.75C597.73 1045.85 614.08 1045.84 630.42 1045.83C630.42 1045.83 630.42 1045.83 630.42 1045.83C637.77 1045.83 645.13 1045.82 652.48 1045.83C652.48 1045.83 652.48 1045.83 652.48 1045.83C656 1045.83 659.52 1045.82 663.04 1045.81C663.04 1045.81 663.04 1045.81 663.04 1045.81C672.24 1045.77 681.44 1045.74 690.62 1046.02C690.62 1046.02 690.62 1046.02 690.62 1046.02C691.67 1046.06 692.83 1046.03 694.01 1046C694.01 1046 694.01 1046 694.01 1046C699.54 1045.86 705.86 1045.72 706.2 1052.05C706.2 1052.05 706.2 1052.05 706.2 1052.05C706.55 1058.58 700.93 1058.54 695.69 1058.49C695.69 1058.49 695.69 1058.49 695.69 1058.49C694.19 1058.48 692.71 1058.47 691.42 1058.61C691.42 1058.61 691.42 1058.61 691.42 1058.61C687.42 1059.05 683.34 1058.74 679.29 1058.74C679.29 1058.74 679.29 1058.74 679.29 1058.74C668.11 1058.74 656.93 1058.74 645.75 1058.74C645.75 1058.74 645.75 1058.74 645.75 1058.74C618.2 1058.73 590.66 1058.72 563.12 1058.84C563.12 1058.84 563.12 1058.84 563.12 1058.84C554.48 1058.88 543.69 1058.43 543.87 1069.72C543.87 1069.72 543.87 1069.72 543.87 1069.72C544.04 1079.17 552.25 1079.02 559.48 1078.88C559.48 1078.88 559.48 1078.88 559.48 1078.88C560.5 1078.85 561.51 1078.83 562.47 1078.84C562.47 1078.84 562.47 1078.84 562.47 1078.84C581.25 1078.95 600.02 1078.95 618.8 1078.95C618.8 1078.95 618.8 1078.95 618.8 1078.95C632.39 1078.95 645.99 1078.94 659.59 1078.98C659.59 1078.98 659.59 1078.98 659.59 1078.98C664.75 1079 670.12 1078.96 675.03 1080.15C675.03 1080.15 675.03 1080.15 675.03 1080.15C680.28 1081.44 684.73 1085.36 683.77 1090.55C683.77 1090.55 683.77 1090.55 683.77 1090.55C683.08 1094.22 679.5 1093.99 676.19 1093.77C676.19 1093.77 676.19 1093.77 676.19 1093.77C675.2 1093.71 674.24 1093.64 673.38 1093.67C673.38 1093.67 673.38 1093.67 673.38 1093.67C663.58 1094.09 653.72 1093.71 643.94 1094.37C643.94 1094.37 643.94 1094.37 643.94 1094.37C637.91 1094.77 632.3 1097.16 632.62 1104.04C632.62 1104.04 632.62 1104.04 632.62 1104.04C632.89 1109.91 637.87 1112.03 643.29 1112.68C643.29 1112.68 643.29 1112.68 643.29 1112.68C648.43 1113.29 653.66 1113.33 658.84 1113.33C658.84 1113.33 658.84 1113.33 658.84 1113.33C666.44 1113.34 674.02 1113.34 681.61 1113.34C681.61 1113.34 681.61 1113.34 681.61 1113.34C681.31 1109.68 683.18 1106.12 686.48 1104.32C686.48 1104.32 686.48 1104.32 686.48 1104.32C695.21 1099.57 702.17 1090.92 707.18 1078.62C707.18 1078.62 707.18 1078.62 707.18 1078.62L749.73 953.8C730.41 953.8 718.34 953.8 713.51 953.8Z" id="bcxWPaCg1"></path>
        <path d="M651.86 896.67C652.29 904.21 658.86 905.79 665.61 905.88C665.61 905.88 665.61 905.88 665.61 905.88C666.97 905.9 668.33 905.92 669.69 905.93C669.69 905.93 669.69 905.93 669.69 905.93C673.62 894.46 675.8 888.09 676.24 886.82C672.36 886.79 668.49 886.75 664.62 886.67C664.62 886.67 664.62 886.67 664.62 886.67C664.45 886.66 664.28 886.66 664.11 886.66C664.11 886.66 664.11 886.66 664.11 886.66C657.54 886.66 651.44 889.21 651.86 896.67" id="e2a0WXVVHf"></path>
        <path d="M533.25 955.03C527.72 955.81 524.12 959.63 524.43 965.19C524.43 965.19 524.43 965.19 524.43 965.19C524.74 970.75 528.83 973.91 534.3 974.68C534.3 974.68 534.3 974.68 534.3 974.68C541.06 975.63 547.99 975.61 555.59 976.06C555.59 976.06 555.59 976.06 555.59 976.06C563.46 975.65 572.09 975.61 580.59 974.61C580.59 974.61 580.59 974.61 580.59 974.61C586.03 973.97 590.25 970.76 590.47 965.18C590.47 965.18 590.47 965.18 590.47 965.18C590.7 959.49 586.51 956.39 581.11 955.4C581.11 955.4 581.11 955.4 581.11 955.4C573.1 953.93 565.04 953.28 556.98 953.28C556.98 953.28 556.98 953.28 556.98 953.28C549.07 953.28 541.14 953.91 533.25 955.03" id="c5vGxDH7Ic"></path>
        <path d="M482.88 1059.72C477.32 1060.28 473.26 1063.73 473.28 1069.39C473.28 1069.39 473.28 1069.39 473.28 1069.39C473.3 1076.25 478.57 1078.39 484.85 1078.66C484.85 1078.66 484.85 1078.66 484.85 1078.66C491.76 1078.96 498.69 1078.73 505.62 1078.73C505.62 1078.73 505.62 1078.73 505.62 1078.73C505.62 1078.68 505.62 1078.63 505.62 1078.58C505.62 1078.58 505.62 1078.58 505.62 1078.58C513.12 1078.58 520.63 1078.83 528.11 1078.5C528.11 1078.5 528.11 1078.5 528.11 1078.5C533.83 1078.25 538.39 1075.6 538.73 1069.94C538.73 1069.94 538.73 1069.94 538.73 1069.94C539.06 1064.39 534.96 1060.79 529.43 1059.99C529.43 1059.99 529.43 1059.99 529.43 1059.99C521.86 1058.88 514.24 1058.42 506.63 1058.42C506.63 1058.42 506.63 1058.42 506.63 1058.42C498.7 1058.42 490.78 1058.92 482.88 1059.72" id="b3EzBFfAt"></path>
        <path d="M812.88 888.88L685.46 888.88L679.6 906L674.35 921.32L667.71 940.66L666.43 944.41L716.92 944.41L762.86 944.41C734.73 1026.9 719.1 1072.72 715.97 1081.89C710.1 1096.47 701.77 1106.69 690.96 1112.57C690.96 1112.57 690.96 1112.57 690.96 1112.57L705.44 1112.57L705.44 1112.72L711.8 1112.72L774.02 1112.72L831.59 944.41L928.02 944.41L947.05 888.88L812.88 888.88Z" id="amjqcTdmt"></path>
        <path d="M966.08 888.88L947.05 944.41L1043.48 944.41C1015.35 1026.9 999.73 1072.72 996.6 1081.89C990.73 1096.47 982.39 1106.69 971.59 1112.57C971.59 1112.57 971.59 1112.57 971.59 1112.57L986.06 1112.57L986.06 1112.72L1054.64 1112.72L1112.21 944.41L1208.65 944.41L1227.67 888.88L966.08 888.88Z" id="c4z7IMWal"></path>
        <path d="M1232.89 888.72C1239.28 890.93 1245.05 894.91 1250.19 900.68C1250.19 900.68 1250.19 900.68 1250.19 900.68C1260.46 912.43 1262.51 927.53 1256.32 945.99C1256.32 945.99 1256.32 945.99 1256.32 945.99C1256.01 946.61 1254.33 950.92 1251.29 958.88C1251.29 958.88 1251.29 958.88 1251.29 958.88C1235.14 1002.4 1250.76 1024.16 1298.16 1024.16C1298.16 1024.16 1298.16 1024.16 1298.16 1024.16C1359.99 1024.16 1394.33 1024.16 1401.2 1024.16C1411.16 1024.16 1418.76 1026 1424 1029.67C1424 1029.67 1424 1029.67 1424 1029.67C1429.46 1033.55 1431.09 1038.75 1428.89 1045.24C1428.89 1045.24 1428.89 1045.24 1428.89 1045.24C1426.26 1052.79 1421.49 1057.98 1414.57 1060.81C1414.57 1060.81 1414.57 1060.81 1414.57 1060.81C1409.74 1062.7 1402.82 1063.65 1393.81 1063.65C1393.81 1063.65 1393.81 1063.65 1393.81 1063.65C1286.97 1063.65 1227.61 1063.65 1215.74 1063.65C1210.81 1079.91 1212.54 1091.86 1220.93 1099.51C1220.93 1099.51 1220.93 1099.51 1220.93 1099.51C1230.58 1108.32 1249.93 1112.72 1278.97 1112.72C1278.97 1112.72 1278.97 1112.72 1278.97 1112.72C1330.88 1112.72 1359.72 1112.72 1365.49 1112.72C1410.69 1112.72 1441.41 1108.63 1457.67 1100.45C1457.67 1100.45 1457.67 1100.45 1457.67 1100.45C1474.55 1091.86 1488.08 1073.03 1498.25 1043.98C1498.25 1043.98 1498.25 1043.98 1498.25 1043.98C1507.79 1016.61 1507.27 997.68 1496.68 987.19C1496.68 987.19 1496.68 987.19 1496.68 987.19C1487.97 978.6 1470.14 974.3 1443.19 974.3C1443.19 974.3 1443.19 974.3 1443.19 974.3C1409.12 974.3 1390.2 974.3 1386.41 974.3C1355.79 974.51 1336.81 973.73 1329.47 971.94C1329.47 971.94 1329.47 971.94 1329.47 971.94C1324.33 970.68 1321.03 968.69 1319.56 965.97C1319.56 965.97 1319.56 965.97 1319.56 965.97C1318.19 963.35 1318.3 959.62 1319.87 954.8C1319.87 954.8 1319.87 954.8 1319.87 954.8C1323.85 943.47 1334.29 937.81 1351.17 937.81C1351.17 937.81 1351.17 937.81 1351.17 937.81C1455.37 937.81 1513.26 937.81 1524.83 937.81C1527.98 923.23 1527.2 912.69 1522.47 906.19C1522.47 906.19 1522.47 906.19 1522.47 906.19C1514.19 894.54 1493.85 888.72 1461.44 888.72C1461.44 888.72 1461.44 888.72 1461.44 888.72C1339.55 888.72 1263.36 888.72 1232.89 888.72Z" id="bnKEyvLHw"></path>
    </g>
    
</svg>
