<?xml version="1.0" encoding="UTF-8" standalone="no"?>
<!DOCTYPE svg PUBLIC "-//W3C//DTD SVG 1.1//EN" "http://www.w3.org/Graphics/SVG/1.1/DTD/svg11.dtd">
<svg version="1.1" xmlns="http://www.w3.org/2000/svg" xmlns:xlink="http://www.w3.org/1999/xlink" preserveAspectRatio="xMidYMid meet" viewBox="0 0 2000 381" width="2000" height="381">
    <g>
        <path d="M440.21 3.74L430.35 32.55L421.51 58.33L410.34 90.87L408.18 97.18L493.15 97.18C539.54 97.18 565.31 97.18 570.46 97.18C523.12 236 496.82 313.11 491.55 328.54C481.67 353.08 467.66 370.27 449.46 380.17C449.46 380.17 449.46 380.17 449.46 380.17C451.09 380.17 459.21 380.17 473.83 380.17L473.83 380.42L484.53 380.42L589.24 380.42L686.12 97.18L848.4 97.18L880.42 3.74L654.64 3.74L440.21 3.74Z" id="a10pCtMj6O"></path>
        <path d="M880.42 97.18C977.79 97.18 1031.88 97.18 1042.7 97.18C995.36 236 969.07 313.11 963.81 328.54C953.93 353.08 939.89 370.27 921.72 380.17C921.72 380.17 921.72 380.17 921.72 380.17C923.34 380.17 931.46 380.17 946.07 380.17L946.07 380.42L1061.48 380.42L1158.36 97.18L1320.65 97.18L1352.66 3.74L912.45 3.74L880.42 97.18Z" id="b810WamQh"></path>
        <path d="M1390.56 23.59C1390.56 23.59 1390.56 23.59 1390.56 23.59C1407.84 43.37 1411.29 68.78 1400.87 99.84C1400.87 99.84 1400.87 99.84 1400.87 99.84C1400.35 100.89 1397.52 108.14 1392.41 121.53C1392.41 121.53 1392.41 121.53 1392.41 121.53C1365.23 194.77 1391.52 231.39 1471.28 231.39C1471.28 231.39 1471.28 231.39 1471.28 231.39C1575.33 231.39 1633.12 231.39 1644.68 231.39C1661.44 231.39 1674.23 234.49 1683.05 240.66C1683.05 240.66 1683.05 240.66 1683.05 240.66C1692.24 247.19 1694.98 255.94 1691.28 266.86C1691.28 266.86 1691.28 266.86 1691.28 266.86C1686.85 279.57 1678.83 288.3 1667.18 293.07C1667.18 293.07 1667.18 293.07 1667.18 293.07C1659.05 296.25 1647.41 297.85 1632.24 297.85C1632.24 297.85 1632.24 297.85 1632.24 297.85C1452.45 297.85 1352.56 297.85 1332.58 297.85C1324.29 325.21 1327.2 345.32 1341.32 358.19C1341.32 358.19 1341.32 358.19 1341.32 358.19C1357.56 373.02 1390.12 380.42 1438.99 380.42C1438.99 380.42 1438.99 380.42 1438.99 380.42C1526.34 380.42 1574.88 380.42 1584.59 380.42C1660.65 380.42 1712.35 373.54 1739.71 359.77C1739.71 359.77 1739.71 359.77 1739.71 359.77C1768.12 345.32 1790.89 313.63 1808 264.74C1808 264.74 1808 264.74 1808 264.74C1824.05 218.68 1823.18 186.83 1805.36 169.18C1805.36 169.18 1805.36 169.18 1805.36 169.18C1790.7 154.72 1760.7 147.48 1715.34 147.48C1715.34 147.48 1715.34 147.48 1715.34 147.48C1658.01 147.48 1626.17 147.48 1619.79 147.48C1568.26 147.84 1536.32 146.52 1523.97 143.51C1523.97 143.51 1523.97 143.51 1523.97 143.51C1515.32 141.39 1509.77 138.04 1507.29 133.47C1507.29 133.47 1507.29 133.47 1507.29 133.47C1504.99 129.06 1505.17 122.78 1507.82 114.67C1507.82 114.67 1507.82 114.67 1507.82 114.67C1514.51 95.6 1532.08 86.08 1560.49 86.08C1560.49 86.08 1560.49 86.08 1560.49 86.08C1735.84 86.08 1833.26 86.08 1852.73 86.08C1858.03 61.54 1856.72 43.8 1848.76 32.87C1848.76 32.87 1848.76 32.87 1848.76 32.87C1834.82 13.26 1800.6 3.47 1746.05 3.47C1746.05 3.47 1746.05 3.47 1746.05 3.47C1540.93 3.47 1412.72 3.47 1361.44 3.47C1372.2 7.19 1381.91 13.88 1390.56 23.59Z" id="fjw3gc6io"></path>
        <path d="M125.01 75.69C125.57 92.4 142.23 91.63 156.67 90.86C156.67 90.86 156.67 90.86 156.67 90.86C159.83 90.69 162.89 90.52 165.67 90.54C165.67 90.54 165.67 90.54 165.67 90.54C241.65 90.92 317.65 90.79 393.66 90.84C393.66 90.84 393.66 90.84 393.66 90.84C400.34 71.32 404.04 60.48 404.78 58.31C325.2 58.28 245.62 58.21 166.04 58.71C166.04 58.71 166.04 58.71 166.04 58.71C163.13 58.73 159.85 58.51 156.47 58.29C156.47 58.29 156.47 58.29 156.47 58.29C153.22 58.09 149.87 57.87 146.62 57.87C146.62 57.87 146.62 57.87 146.62 57.87C134.93 57.87 124.54 60.58 125.01 75.69" id="c47rOSZtQM"></path>
        <path d="M473.06 113.63C473.06 113.63 473.06 113.63 473.06 113.63C470.79 113.47 468.55 113.34 466.51 113.34C466.51 113.34 466.51 113.34 466.51 113.34C451.3 113.39 436.09 113.34 420.87 113.31C420.87 113.31 420.87 113.31 420.87 113.31C393.29 113.22 365.73 113.14 338.16 113.61C338.16 113.61 338.16 113.61 338.16 113.61C324.72 113.83 307.85 115.73 308.29 132.49C308.29 132.49 308.29 132.49 308.29 132.49C308.73 149.62 325.86 149.13 339.26 149.54C339.26 149.54 339.26 149.54 339.26 149.54C364.53 150.28 389.84 149.87 415.1 150.36C415.1 150.36 415.1 150.36 415.1 150.36C421.85 150.48 429.81 151.34 430.21 159.65C430.21 159.65 430.21 159.65 430.21 159.65C430.62 167.73 423.28 169.97 416.36 170.69C416.36 170.69 416.36 170.69 416.36 170.69C407.71 171.58 398.91 171.68 390.18 171.68C390.18 171.68 390.18 171.68 390.18 171.68C328.89 171.77 267.6 171.68 206.34 171.8C206.34 171.8 206.34 171.8 206.34 171.8C197.59 171.82 188.78 172 180.18 173.18C180.18 173.18 180.18 173.18 180.18 173.18C168.46 174.8 159.86 180.37 160.64 192.57C160.64 192.57 160.64 192.57 160.64 192.57C161.31 203.29 169.41 208.08 180.06 209.16C180.06 209.16 180.06 209.16 180.06 209.16C187.77 209.95 195.57 209.92 203.37 209.92C203.37 209.92 203.37 209.92 203.37 209.92C266.59 210.02 329.81 209.83 393.04 210.3C393.04 210.3 393.04 210.3 393.04 210.3C394.59 210.32 396.34 210.22 398.15 210.12C398.15 210.12 398.15 210.12 398.15 210.12C406.48 209.65 416.31 209.18 416.13 219.54C416.13 219.54 416.13 219.54 416.13 219.54C415.92 229.54 405.22 229.37 396.45 229.22C396.45 229.22 396.45 229.22 396.45 229.22C395.07 229.19 393.75 229.17 392.5 229.19C392.5 229.19 392.5 229.19 392.5 229.19C349.71 229.67 306.91 229.39 264.12 229.64C264.12 229.64 264.12 229.64 264.12 229.64C250.3 229.74 234.31 229.56 234.04 247.21C234.04 247.21 234.04 247.21 234.04 247.21C233.81 265.57 249.71 267.62 265.08 267.72C265.08 267.72 265.08 267.72 265.08 267.72C292.57 267.89 320.09 267.87 347.59 267.86C347.59 267.86 347.59 267.86 347.59 267.86C359.95 267.86 372.34 267.84 384.71 267.86C384.71 267.86 384.71 267.86 384.71 267.86C390.63 267.86 396.56 267.84 402.48 267.82C402.48 267.82 402.48 267.82 402.48 267.82C417.96 267.76 433.44 267.71 448.89 268.18C448.89 268.18 448.89 268.18 448.89 268.18C450.66 268.24 452.61 268.19 454.6 268.14C454.6 268.14 454.6 268.14 454.6 268.14C463.9 267.91 474.54 267.67 475.11 278.32C475.11 278.32 475.11 278.32 475.11 278.32C475.7 289.31 466.24 289.25 457.42 289.16C457.42 289.16 457.42 289.16 457.42 289.16C454.9 289.14 452.41 289.13 450.24 289.36C450.24 289.36 450.24 289.36 450.24 289.36C443.51 290.1 436.64 289.58 429.83 289.58C429.83 289.58 429.83 289.58 429.83 289.58C411.01 289.58 392.2 289.58 373.38 289.58C373.38 289.58 373.38 289.58 373.38 289.58C327.02 289.57 280.68 289.55 234.33 289.75C234.33 289.75 234.33 289.75 234.33 289.75C219.79 289.82 201.63 289.06 201.94 308.06C201.94 308.06 201.94 308.06 201.94 308.06C202.22 323.96 216.04 323.71 228.2 323.47C228.2 323.47 228.2 323.47 228.2 323.47C229.92 323.42 231.62 323.39 233.24 323.41C233.24 323.41 233.24 323.41 233.24 323.41C264.84 323.59 296.43 323.59 328.03 323.59C328.03 323.59 328.03 323.59 328.03 323.59C350.9 323.59 373.79 323.58 396.67 323.64C396.67 323.64 396.67 323.64 396.67 323.64C405.36 323.68 414.39 323.61 422.66 325.61C422.66 325.61 422.66 325.61 422.66 325.61C431.49 327.78 438.98 334.38 437.36 343.11C437.36 343.11 437.36 343.11 437.36 343.11C436.2 349.29 430.18 348.9 424.61 348.53C424.61 348.53 424.61 348.53 424.61 348.53C422.94 348.43 421.33 348.31 419.88 348.36C419.88 348.36 419.88 348.36 419.88 348.36C403.39 349.07 386.8 348.43 370.34 349.54C370.34 349.54 370.34 349.54 370.34 349.54C360.19 350.21 350.75 354.24 351.29 365.81C351.29 365.81 351.29 365.81 351.29 365.81C351.74 375.69 360.12 379.26 369.24 380.35C369.24 380.35 369.24 380.35 369.24 380.35C377.89 381.38 386.69 381.45 395.41 381.45C395.41 381.45 395.41 381.45 395.41 381.45C408.2 381.47 420.96 381.47 433.73 381.47C433.73 381.47 433.73 381.47 433.73 381.47C433.22 375.31 436.37 369.32 441.92 366.29C441.92 366.29 441.92 366.29 441.92 366.29C456.62 358.29 468.33 343.74 476.76 323.04C476.76 323.04 476.76 323.04 476.76 323.04C483.92 302.03 541.2 133.99 548.36 112.99C515.85 112.99 495.54 112.99 487.41 112.99C483.37 114.25 478.09 113.94 473.06 113.63Z" id="ejCicp43"></path>
        <path d="M383.67 16.85C384.39 29.53 395.44 32.19 406.8 32.34C406.8 32.34 406.8 32.34 406.8 32.34C409.09 32.38 411.38 32.41 413.67 32.43C413.67 32.43 413.67 32.43 413.67 32.43C420.28 13.13 423.95 2.41 424.69 0.27C418.16 0.22 411.65 0.15 405.14 0.02C405.14 0.02 405.14 0.02 405.14 0.02C404.85 0 404.57 0 404.28 0C404.28 0 404.28 0 404.28 0C393.22 0 382.96 4.29 383.67 16.85" id="b7dYNooXH"></path>
        <path d="M184.06 115.06C174.76 116.37 168.7 122.8 169.22 132.15C169.22 132.15 169.22 132.15 169.22 132.15C169.74 141.51 176.63 146.83 185.83 148.12C185.83 148.12 185.83 148.12 185.83 148.12C197.21 149.72 208.87 149.69 221.66 150.45C221.66 150.45 221.66 150.45 221.66 150.45C234.9 149.76 249.43 149.69 263.73 148.01C263.73 148.01 263.73 148.01 263.73 148.01C272.88 146.93 279.99 141.53 280.36 132.14C280.36 132.14 280.36 132.14 280.36 132.14C280.74 122.56 273.69 117.34 264.6 115.68C264.6 115.68 264.6 115.68 264.6 115.68C251.12 113.2 237.56 112.11 224 112.11C224 112.11 224 112.11 224 112.11C210.69 112.11 197.34 113.17 184.06 115.06" id="g5urKwQ2Ia"></path>
        <path d="M99.3 291.23C89.94 292.17 83.11 297.98 83.14 307.5C83.14 307.5 83.14 307.5 83.14 307.5C83.18 319.05 92.05 322.65 102.61 323.1C102.61 323.1 102.61 323.1 102.61 323.1C114.24 323.61 125.91 323.22 137.57 323.22C137.57 323.22 137.57 323.22 137.57 323.22C137.57 323.14 137.57 323.05 137.57 322.97C137.57 322.97 137.57 322.97 137.57 322.97C150.19 322.97 162.83 323.39 175.41 322.84C175.41 322.84 175.41 322.84 175.41 322.84C185.04 322.41 192.71 317.95 193.29 308.43C193.29 308.43 193.29 308.43 193.29 308.43C193.84 299.09 186.94 293.03 177.64 291.69C177.64 291.69 177.64 291.69 177.64 291.69C164.9 289.82 152.07 289.04 139.27 289.04C139.27 289.04 139.27 289.04 139.27 289.04C125.92 289.04 112.59 289.89 99.3 291.23" id="f2tZ9k7X8"></path>
    </g>
</svg>
