<?xml version="1.0" encoding="utf-8"?>
<!-- Generator: Adobe Illustrator 19.1.0, SVG Export Plug-In . SVG Version: 6.00 Build 0)  -->
<svg version="1.1" id="Calque_1" xmlns="http://www.w3.org/2000/svg" xmlns:xlink="http://www.w3.org/1999/xlink" x="0px" y="0px"
	 viewBox="0 0 595.3 841.9" style="enable-background:new 0 0 595.3 841.9;" xml:space="preserve">
<style type="text/css">
	.st0{fill:#FFFFFF;}
</style>
<g>

		<path class="st0" d="M295.9,306.6v188.2l-21.6-15.1c-6.1-4.3-13.3-6.5-20.7-6.5c-7.4,0-14.6,2.3-20.7,6.5L214,492.8L295.9,306.6
			 M297.9,297l-88.6,201.5l24.7-17.3c5.9-4.1,12.7-6.2,19.5-6.2s13.7,2.1,19.5,6.2l24.7,17.3V297L297.9,297z"/>

		<path class="st0" d="M253.6,475.5c5.1,0,10,1.5,14.2,4.5l23.7,16.6h-75.9l23.7-16.6C243.6,477,248.5,475.5,253.6,475.5
			 M253.6,473.5c-5.4,0-10.8,1.6-15.4,4.8l-28.9,20.2h88.6L269,478.3C264.4,475.1,259,473.5,253.6,473.5L253.6,473.5z"/>

		<path class="st0" d="M295.9,500.6v74.7l-81.4-74.7H295.9 M297.9,498.6h-88.6l88.6,81.3V498.6L297.9,498.6z"/>

		<path class="st0" d="M210.5,502.4l84,77.1L179,644.1L210.5,502.4 M209.3,498.6L176.1,648l121.8-68.2L209.3,498.6L209.3,498.6z"/>

		<path class="st0" d="M35.3,408.5L207,499.6l-31.8,143.1L35.3,408.5 M29.9,403.3L176.1,648l33.2-149.5L29.9,403.3L29.9,403.3z"/>

		<path class="st0" d="M295.9,8.9v169.9L212.5,8.9H295.9 M297.9,6.9h-88.6l88.6,180.5V6.9L297.9,6.9z"/>

		<path class="st0" d="M418.4,651l19,74.8L299.9,828.9V716L418.4,651 M419.7,648l-121.8,66.8v118.1l141.7-106.3L419.7,648L419.7,648
			z"/>

		<path class="st0" d="M211.3,15.6l84.6,172.3v104.5L211.3,212V15.6 M209.3,6.9v205.9l88.6,84.2V187.4L209.3,6.9L209.3,6.9z"/>

		<path class="st0" d="M79.4,327.3l59.8,30.5L34.8,399.2L79.4,327.3 M78.7,324.7l-48.7,78.6l114-45.2L78.7,324.7L78.7,324.7z"/>

		<path class="st0" d="M209.2,215.6l85,80.8l-66.5,26.4l-68.6-64.2L209.2,215.6 M209.3,212.9l-53.1,45.5l70.9,66.3l-83,33.4
			L297.9,297L209.3,212.9L209.3,212.9z"/>

		<path class="st0" d="M294.1,300.7l-85.8,195.1L34.7,403.6l110-43.6L294.1,300.7 M297.9,297L144,358.1l0,0l-114,45.2l179.4,95.2
			L297.9,297L297.9,297z"/>

		<path class="st0" d="M156.1,261.1l67.3,63l-79.3,31.9l-61.9-31.6L156.1,261.1 M156.2,258.4l-77.5,66.3l65.3,33.4l0,0l83-33.4
			L156.2,258.4L156.2,258.4z"/>

		<polygon class="st0" points="144,358.1 144,358.1 144,358.1 		"/>

		<path class="st0" d="M61.1,576.2l112.8,72.8l-18.5,72.8L61.1,576.2 M54.3,569.4l101.9,157.2l19.9-78.6L54.3,569.4L54.3,569.4z"/>

		<path class="st0" d="M104.6,164.9l101.1,48.4l-50.8,43.5l-73.4,62.9L104.6,164.9 M103,162L78.7,324.7l77.5-66.3l53.1-45.5L103,162
			L103,162z"/>

		<path class="st0" d="M33.4,413L170,641.7L56.2,568.2L33.4,413 M29.9,403.3l24.4,166.1L176.1,648L29.9,403.3L29.9,403.3z"/>

		<path class="st0" d="M203.6,11.8L103.2,158.2l-46-79.5L203.6,11.8 M209.3,6.9l-155,70.9L103,162L209.3,6.9L209.3,6.9z"/>

		<path class="st0" d="M207.3,13.4v196.3L106,161.2L207.3,13.4 M209.3,6.9L103,162l106.3,50.9V6.9L209.3,6.9z"/>

		<path class="st0" d="M98.4,170.3L31.9,389.8v-143L98.4,170.3 M103,162l-73.1,84.2v157.2L103,162L103,162z"/>

		<path class="st0" d="M55.5,83.8l45.1,77.9l-67.7,77.9L55.5,83.8 M54.3,77.8L29.9,246.1L103,162L54.3,77.8L54.3,77.8z"/>

		<path class="st0" d="M97,188.8L76.7,324l-40.5,65.3L97,188.8 M103,162L29.9,403.3l48.7-78.6L103,162L103,162z"/>

		<path class="st0" d="M177.4,651l118.5,65v112.9L158.4,725.8L177.4,651 M176.1,648l-19.9,78.6l141.7,106.3V714.8L176.1,648
			L176.1,648z"/>

		<path class="st0" d="M560.5,408.5L420.6,642.7l-31.8-143.1L560.5,408.5 M565.9,403.3l-179.4,95.2L419.7,648L565.9,403.3
			L565.9,403.3z"/>

		<path class="st0" d="M385.3,502.4l31.5,141.7l-115.5-64.7L385.3,502.4 M386.5,498.6l-88.6,81.3L419.7,648L386.5,498.6L386.5,498.6
			z"/>

		<path class="st0" d="M301.7,300.7L451.1,360l110,43.6l-173.6,92.2L301.7,300.7 M297.9,297l88.6,201.5l179.4-95.2l-114-45.2l0,0
			L297.9,297L297.9,297z"/>

		<path class="st0" d="M381.4,500.6l-81.5,74.7l0-74.7H381.4 M386.5,498.6h-88.6l0,81.3L386.5,498.6L386.5,498.6z"/>

		<path class="st0" d="M534.8,576.2l-94.3,145.6L422,648.9L534.8,576.2 M541.5,569.4L419.7,648l19.9,78.6L541.5,569.4L541.5,569.4z"
			/>

		<path class="st0" d="M299.9,306.6l81.9,186.3l-22-15.4c-5.2-3.6-11.3-5.5-17.6-5.5s-12.4,1.9-17.6,5.5l-24.7,17.3V306.6
			 M297.9,297v201.5l27.8-19.5c4.9-3.5,10.7-5.2,16.5-5.2c5.8,0,11.5,1.7,16.5,5.2l27.8,19.5L297.9,297L297.9,297z"/>

		<path class="st0" d="M516.4,327.3l44.6,71.9l-104.3-41.4L516.4,327.3 M517.1,324.7l-65.3,33.4l114,45.2L517.1,324.7L517.1,324.7z"
			/>

		<path class="st0" d="M497.4,170.3l66.5,76.5v143L497.4,170.3 M492.8,162l73.1,241.4V246.1L492.8,162L492.8,162z"/>

		<path class="st0" d="M498.8,188.8l60.7,200.5L519.1,324L498.8,188.8 M492.8,162l24.4,162.8l48.7,78.6L492.8,162L492.8,162z"/>

		<path class="st0" d="M342.2,475.4c5.1,0,9.9,1.5,14.1,4.4l23.9,16.7h-75.9l23.9-16.7C332.3,476.9,337.1,475.4,342.2,475.4
			 M342.2,473.4c-5.3,0-10.6,1.6-15.2,4.8l-29.1,20.4h88.6l-29.1-20.4C352.8,475,347.5,473.4,342.2,473.4L342.2,473.4z"/>

		<polygon class="st0" points="451.8,358.1 451.8,358.1 451.8,358.1 		"/>

		<path class="st0" d="M392.2,11.8l146.5,66.9l-46,79.5L392.2,11.8 M386.5,6.9l106.3,155l48.7-84.2L386.5,6.9L386.5,6.9z"/>

		<path class="st0" d="M540.3,83.8l22.6,155.9l-67.7-77.9L540.3,83.8 M541.5,77.8L492.8,162l73.1,84.2L541.5,77.8L541.5,77.8z"/>

		<path class="st0" d="M383.3,8.9l-83.4,169.9V8.9H383.3 M386.5,6.9h-88.6v180.5L386.5,6.9L386.5,6.9z"/>

		<path class="st0" d="M562.4,413l-22.8,155.2l-113.8,73.5L562.4,413 M565.9,403.3L419.7,648l121.8-78.6L565.9,403.3L565.9,403.3z"
			/>

		<path class="st0" d="M386.6,215.6l50.1,42.9L368,322.7l-66.5-26.4L386.6,215.6 M386.5,212.9L297.9,297l153.9,61.1l-83-33.4
			l70.9-66.3L386.5,212.9L386.5,212.9z"/>

		<path class="st0" d="M384.5,15.6V212l-84.6,80.4V187.9L384.5,15.6 M386.5,6.9l-88.6,180.5V297l88.6-84.2V6.9L386.5,6.9z"/>

		<path class="st0" d="M388.5,13.4l101.3,147.8l-101.3,48.6V13.4 M386.5,6.9v205.9L492.8,162L386.5,6.9L386.5,6.9z"/>

		<path class="st0" d="M439.7,261.1l73.9,63.2l-61.9,31.6L372.4,324L439.7,261.1 M439.6,258.4l-70.9,66.3l83,33.4l0,0l65.3-33.4
			L439.6,258.4L439.6,258.4z"/>

		<path class="st0" d="M491.2,164.9l23.2,154.8l-73.4-62.9l-50.8-43.5L491.2,164.9 M492.8,162l-106.3,50.9l53.1,45.5l77.5,66.3
			L492.8,162L492.8,162z"/>

</g>
</svg>
