<?xml version="1.0" encoding="utf-8"?>
<!-- Generator: Adobe Illustrator 19.1.0, SVG Export Plug-In . SVG Version: 6.00 Build 0)  -->
<svg version="1.1" id="Calque_1" xmlns="http://www.w3.org/2000/svg" xmlns:xlink="http://www.w3.org/1999/xlink" x="0px" y="0px"
	 viewBox="212 -213.2 566.9 566.9" style="enable-background:new 212 -213.2 566.9 566.9;" xml:space="preserve">
<g>
	<polygon points="357.3,-57.7 246.4,-40.6 240.4,31.1 351.4,13.6 	"/>
	<polygon points="332.6,237.6 338.3,169.3 287,177.3 290.9,131.4 336.8,124.3 342.7,53.7 237.1,70.2 221.3,258.1 332.3,240.9 
		332.3,240.9 331.7,241 	"/>
	<polygon points="482.9,-77.2 409.9,-65.9 391.2,7.4 488.1,-7.8 	"/>
	<path d="M490.9,30.4l-52.2,8.2c0,1.7,0,3.4,0,4.8c0,3.7-0.1,6.7-0.1,8.8c0.2,19.3,0.2,30.4,0.2,33.2c0,3.3,0,5,0.1,5.1l1,34.2
		l-25.2,3.9l9.9-47.7l7.2-36.8c0.1-0.6,0.4-2.1,0.8-4.6l-51.8,8.1l-48.4,190l-0.8,3.4l0.6-0.1l0,0l61-9.4l8.1-38.7l40.3-6.2
		l1.4,37.2l59.1-9.1l1.4-16.7L490.9,30.4z"/>
	<path d="M581.5-40l2.1-0.3c12.6-1.9,20,2.7,22.5,14l59.6-9.4c-1.9-19.5-8.2-34.7-18.9-45.6c-12.2-12.3-31.7-16.3-58.6-12.1
		l-61.1,9.5l-6,71l58.9-9.3L581.5-40z"/>
	<path d="M664.6,3.1L600,13.3c-0.7,1.4-1.5,2.7-2.3,4c-5.2,7.8-11.2,12.2-18.1,13.3l-4,0.6l1.2-14.2l-58.9,9.2L503.5,198l0-0.1
		l-1.4,16.7l2.6-0.4l0,0.1l56.8-8.8l8.8-104.4l1.2-19.7c0.7,4,1.3,7.4,1.7,10.2c0.5,2.8,0.8,5.2,0.9,6.9l20.6,101.8l64.6-10
		l-0.2-0.5L625.3,73C646.9,57.4,660,34.1,664.6,3.1z"/>
	<polygon points="743.8,-117.5 684.1,-108.3 678.2,-37.7 737.9,-47 	"/>
	<polygon points="734.6,-7.9 674.9,1.5 659.1,189.9 659.1,190.3 659.1,190.3 659.1,190.3 763.6,174.2 769.6,102.6 724.8,109.5 	"/>
</g>
<g>
	<path d="M240.2,58.9l1.7-1.3c0.5,1.1,1.3,1.9,2.2,2.4c0.9,0.5,2,0.7,3.2,0.5c1.5-0.2,2.6-0.9,3.3-1.9c0.7-1,0.9-2.3,0.7-3.9
		c-0.2-1.1-0.6-2-1.3-2.7c-0.7-0.7-2-1.3-4-2.1c-2.6-0.9-4.3-1.8-5.3-2.6c-0.9-0.8-1.5-1.9-1.7-3.2c-0.3-1.7,0.1-3.1,1.1-4.3
		s2.3-2,4.1-2.3c1.2-0.2,2.2-0.1,3.2,0.3c0.9,0.4,1.8,1,2.5,1.9l-1.5,1.3c-0.4-0.6-1-1.1-1.7-1.3c-0.7-0.3-1.4-0.3-2.3-0.2
		c-1.2,0.2-2,0.7-2.6,1.5c-0.6,0.8-0.8,1.8-0.6,2.9c0.3,1.6,1.9,3,4.8,4l1.2,0.4c2.2,0.8,3.7,1.6,4.5,2.5c0.8,0.9,1.4,2.1,1.6,3.7
		c0.3,2.1,0,3.9-1.1,5.3c-1,1.4-2.6,2.3-4.7,2.6c-0.8,0.1-1.5,0.1-2.2,0.1c-0.7-0.1-1.3-0.3-2-0.6C242.1,61.4,241.1,60.3,240.2,58.9
		z"/>
	<path d="M300,54.5l-11.9-23.2l2.2-0.4l8.8,17.8l3.2-20.7l9.6,18.5l2.7-19.5l2.2-0.3l-4,25.7l-9.6-19L300,54.5z"/>
	<path d="M359.1,44.3l-3.7-23.6l11.6-1.8l0.3,2l-9.5,1.5l1.2,7.4l9.5-1.5l0.3,2l-9.5,1.5l1.6,10.2l9.5-1.5l0.3,2L359.1,44.3z"/>
	<path d="M408,36.6l6.5-26.1l13.7,22.9l-2.3,0.4l-4.3-7.5l-9.6,1.5l-1.9,8.5L408,36.6z M412.5,25.9l8.2-1.3l-5.6-9.6L412.5,25.9z"/>
	<path d="M470.4,26.9L467,5.4l-6.5,1l-0.3-2L475.3,2l0.3,2l-6.5,1l3.4,21.5L470.4,26.9z"/>
	<path d="M515.4,15.7l1.7-1.3c0.5,1.1,1.3,1.9,2.2,2.4c0.9,0.5,2,0.7,3.2,0.5c1.5-0.2,2.6-0.9,3.3-1.9c0.7-1,0.9-2.3,0.7-3.9
		c-0.2-1.1-0.6-2-1.3-2.7c-0.7-0.7-2-1.3-4-2.1c-2.6-0.9-4.3-1.8-5.3-2.6s-1.5-1.9-1.7-3.2c-0.3-1.7,0.1-3.1,1.1-4.3s2.3-2,4.1-2.3
		c1.2-0.2,2.2-0.1,3.2,0.3c0.9,0.4,1.8,1,2.5,1.9l-1.5,1.3c-0.4-0.6-1-1.1-1.7-1.3c-0.7-0.3-1.4-0.3-2.3-0.2c-1.2,0.2-2,0.7-2.6,1.5
		s-0.8,1.8-0.6,2.9c0.3,1.6,1.9,3,4.8,4l1.2,0.4c2.2,0.8,3.6,1.6,4.5,2.5c0.8,0.9,1.4,2.1,1.6,3.7c0.3,2.1,0,3.9-1.1,5.3
		c-1,1.4-2.6,2.3-4.7,2.6c-0.8,0.1-1.5,0.1-2.2,0.1c-0.7-0.1-1.3-0.3-2-0.6C517.3,18.2,516.3,17.2,515.4,15.7z"/>
	<path d="M569.5,11.3l-3.7-23.6l2.1-0.3l1.5,9.6l12.8-2l-1.5-9.6l2.1-0.3l3.7,23.6L584.4,9l-1.9-12.1l-12.8,2l1.9,12.1L569.5,11.3z"
		/>
	<path d="M627.7,2.2L624-21.4l2.1-0.3l3.7,23.6L627.7,2.2z"/>
	<path d="M685.3-6.9l-2.6,0.4l-10-9.9l-1.3,0.2L673.2-5l-2.1,0.3l-3.7-23.6l4.3-0.7c2.5-0.4,4.5-0.2,6,0.7c1.4,0.9,2.3,2.4,2.7,4.5
		c0.3,1.8,0,3.3-1,4.6c-0.9,1.2-2.3,2-4.2,2.3L685.3-6.9z M669.7-26.7l1.4,8.7l2.2-0.3c2-0.3,3.3-0.9,4-1.6c0.7-0.8,0.9-1.9,0.7-3.5
		c-0.3-1.6-0.8-2.7-1.8-3.3c-0.9-0.6-2.4-0.7-4.3-0.4L669.7-26.7z"/>
	<path d="M727.8-13.5L724.4-35l-6.5,1l-0.3-2l15.1-2.4l0.3,2l-6.5,1l3.4,21.5L727.8-13.5z"/>
</g>
</svg>
