<?xml version="1.0" encoding="utf-8"?>
<!-- Generator: Adobe Illustrator 19.1.0, SVG Export Plug-In . SVG Version: 6.00 Build 0)  -->
<svg version="1.1" id="Calque_1" xmlns="http://www.w3.org/2000/svg" xmlns:xlink="http://www.w3.org/1999/xlink" x="0px" y="0px"
	 viewBox="0 0 595.3 841.9" style="enable-background:new 0 0 595.3 841.9;" xml:space="preserve">
<style type="text/css">
	.st0{fill:#E5944C;}
	.st1{fill:#40281D;}
	.st2{fill:#F1B888;}
	.st3{fill:#CC7740;}
	.st4{fill:#ECA861;}
	.st5{fill:#FCCEA1;}
	.st6{fill:#AA6039;}
	.st7{fill:#FAC590;}
	.st8{fill:#CB773A;}
	.st9{fill:#DF9958;}
	.st10{fill:#DF9B60;}
	.st11{fill:#49250D;}
	.st12{fill:none;}
	.st13{fill:#844A30;}
	.st14{fill:#E39C5C;}
	.st15{fill:#C6753E;}
	.st16{fill:#93593E;}
	.st17{fill:#ECA65F;}
	.st18{fill:#B6582D;}
	.st19{fill:#B46231;}
	.st20{fill:#78492E;}
	.st21{fill:#F3AD6C;}
	.st22{fill:#C06F37;}
	.st23{fill:#F6B476;}
	.st24{fill:#ECB58A;}
	.st25{fill:#B65E38;}
	.st26{fill:#D78A47;}
	.st27{fill:#C06236;}
	.st28{fill:#F9D2B2;}
	.st29{fill:#C7753B;}
	.st30{fill:#F48067;}
</style>
<g>
	<path class="st0" d="M273.2,481.2l24.7,17.3V297l-88.6,201.5l24.7-17.3C245.8,473,261.4,473,273.2,481.2z"/>
	<path class="st1" d="M209.3,498.6h88.6L269,478.3c-9.2-6.5-21.5-6.5-30.7,0L209.3,498.6z"/>
	<polygon class="st2" points="297.9,579.8 297.9,498.6 209.3,498.6 	"/>
	<polygon class="st3" points="176.1,648 297.9,579.8 209.3,498.6 	"/>
	<polygon class="st4" points="29.9,403.3 176.1,648 209.3,498.6 	"/>
	<polygon class="st5" points="297.9,187.4 297.9,6.9 209.3,6.9 	"/>
	<polyline class="st6" points="439.6,726.7 419.7,648 297.9,714.8 297.9,832.9 	"/>
	<polygon class="st7" points="209.3,212.9 297.9,297 297.9,187.4 209.3,6.9 	"/>
	<polygon class="st8" points="78.7,324.7 29.9,403.3 144,358.1 	"/>
	<polygon class="st9" points="156.2,258.4 227,324.7 144,358.1 297.9,297 209.3,212.9 	"/>
	<polygon class="st10" points="144,358.1 144,358.1 29.9,403.3 209.3,498.6 297.9,297 	"/>
	<polygon class="st11" points="144,358.1 144,358.1 227,324.7 156.2,258.4 78.7,324.7 	"/>
	<path class="st12" d="M144,358.1L144,358.1L144,358.1z"/>
	<polygon class="st13" points="156.2,726.7 176.1,648 54.3,569.4 	"/>
	<polygon class="st14" points="78.7,324.7 156.2,258.4 156.2,258.4 156.2,258.4 209.3,212.9 103,162 	"/>
	<polygon class="st15" points="54.3,569.4 176.1,648 29.9,403.3 	"/>
	<polygon class="st16" points="209.3,6.9 54.3,77.8 103,162 	"/>
	<polygon class="st17" points="209.3,212.9 209.3,6.9 103,162 	"/>
	<polygon class="st16" points="29.9,246.1 29.9,403.3 103,162 	"/>
	<polygon class="st18" points="54.3,77.8 29.9,246.1 103,162 	"/>
	<polygon class="st19" points="103,162 29.9,403.3 78.7,324.7 	"/>
	<polygon class="st20" points="297.9,832.9 297.9,714.8 176.1,648 156.2,726.7 	"/>
	<polygon class="st21" points="419.7,648 565.9,403.3 386.5,498.6 	"/>
	<polygon class="st22" points="297.9,579.8 419.7,648 386.5,498.6 	"/>
	<polygon class="st23" points="451.8,358.1 451.8,358.1 297.9,297 386.5,498.6 565.9,403.3 	"/>
	<polygon class="st24" points="297.9,498.6 297.9,579.8 386.5,498.6 	"/>
	<polygon class="st25" points="439.6,726.7 541.5,569.4 419.7,648 	"/>
	<path class="st10" d="M386.5,498.6L297.9,297v201.5l27.8-19.5c9.9-6.9,23-6.9,32.9,0L386.5,498.6z"/>
	<polygon class="st26" points="451.8,358.1 565.9,403.3 517.1,324.7 	"/>
	<polygon class="st16" points="492.8,162 565.9,403.3 565.9,246.1 	"/>
	<polygon class="st27" points="517.1,324.7 565.9,403.3 492.8,162 	"/>
	<path class="st1" d="M327,478.2l-29.1,20.4h88.6l-29.1-20.4C348.3,471.8,336.1,471.8,327,478.2z"/>
	<path class="st12" d="M451.8,358.1L451.8,358.1L451.8,358.1z"/>
	<polygon class="st16" points="541.5,77.8 386.5,6.9 492.8,162 	"/>
	<polygon class="st18" points="565.9,246.1 541.5,77.8 492.8,162 	"/>
	<polygon class="st28" points="297.9,6.9 297.9,187.4 386.5,6.9 	"/>
	<polygon class="st29" points="541.5,569.4 565.9,403.3 419.7,648 	"/>
	<polygon class="st9" points="368.8,324.7 439.6,258.4 386.5,212.9 297.9,297 451.8,358.1 	"/>
	<polygon class="st7" points="386.5,6.9 297.9,187.4 297.9,297 386.5,212.9 	"/>
	<polygon class="st17" points="492.8,162 386.5,6.9 386.5,212.9 	"/>
	<polygon class="st11" points="368.8,324.7 451.8,358.1 451.8,358.1 517.1,324.7 439.6,258.4 	"/>
	<polygon class="st14" points="439.6,258.4 439.6,258.4 439.6,258.4 517.1,324.7 492.8,162 386.5,212.9 	"/>
	<path class="st30" d="M327.6,588.6l92.1,59.5l-88.1,56.8c-20.5,13.3-46.9,13.3-67.5,0l-88-56.9l92.2-59.5
		C286.3,576.9,309.5,576.9,327.6,588.6z"/>
</g>
</svg>
